<?xml version="1.0" encoding="UTF-8" standalone="no"?>
<!-- Generator: Adobe Illustrator 12.0.1, SVG Export Plug-In . SVG Version: 6.00 Build 51448)  -->

<svg
   xmlns:dc="http://purl.org/dc/elements/1.1/"
   xmlns:cc="http://creativecommons.org/ns#"
   xmlns:rdf="http://www.w3.org/1999/02/22-rdf-syntax-ns#"
   xmlns:svg="http://www.w3.org/2000/svg"
   xmlns="http://www.w3.org/2000/svg"
   xmlns:sodipodi="http://sodipodi.sourceforge.net/DTD/sodipodi-0.dtd"
   xmlns:inkscape="http://www.inkscape.org/namespaces/inkscape"
   version="1.1"
   id="Layer_2"
   width="500"
   height="530"
   viewBox="0 0 499.99999 530"
   style="overflow:visible"
   xml:space="preserve"
   inkscape:version="0.91 r13725"
   sodipodi:docname="Proton_Exchange_Fuel_Cell.svg"><metadata
     id="metadata169"><rdf:RDF><cc:Work
         rdf:about=""><dc:format>image/svg+xml</dc:format><dc:type
           rdf:resource="http://purl.org/dc/dcmitype/StillImage" /><dc:title></dc:title></cc:Work></rdf:RDF></metadata><defs
     id="defs167" /><sodipodi:namedview
     pagecolor="#ffffff"
     bordercolor="#666666"
     borderopacity="1"
     objecttolerance="10"
     gridtolerance="10"
     guidetolerance="10"
     inkscape:pageopacity="1"
     inkscape:pageshadow="2"
     inkscape:window-width="1600"
     inkscape:window-height="837"
     id="namedview165"
     showgrid="false"
     fit-margin-top="0"
     fit-margin-left="0"
     fit-margin-right="0"
     fit-margin-bottom="0"
     inkscape:zoom="1.6561403"
     inkscape:cx="499.50404"
     inkscape:cy="183.68738"
     inkscape:window-x="-8"
     inkscape:window-y="-8"
     inkscape:window-maximized="1"
     inkscape:current-layer="Layer_2" /><rect
     x="200.60493"
     y="106.63381"
     style="fill:#cccccc"
     width="76"
     height="359"
     id="rect5" /><rect
     x="276.60492"
     y="106.63381"
     style="fill:#e6e6e6"
     width="38"
     height="359"
     id="rect7" /><rect
     x="162.60493"
     y="106.63381"
     style="fill:#e6e6e6"
     width="38"
     height="359"
     id="rect9" /><line
     style="fill:none;stroke:#000000;stroke-width:1.5"
     x1="57.604919"
     y1="106.63381"
     x2="419.60492"
     y2="106.63381"
     id="line11" /><line
     style="fill:none;stroke:#000000;stroke-width:1.5"
     x1="57.604919"
     y1="465.63382"
     x2="419.60492"
     y2="465.63382"
     id="line13" /><polyline
     style="fill:none;stroke:#000000;stroke-width:1.5"
     points="81.6,438.5 130.6,438.5 130.6,182.5 81.6,182.5 "
     id="polyline15"
     transform="translate(-23.995067,-24.366172)" /><polyline
     style="fill:none;stroke:#000000;stroke-width:1.5"
     points="443.6,182.5 394.6,182.5 394.6,438.5 443.6,438.5 "
     id="polyline17"
     transform="translate(-23.995067,-24.366172)" /><g
     id="g19"
     transform="translate(-23.995067,-24.366172)"><g
       id="g21"><line
         style="fill:none;stroke:#000000;stroke-width:1.5"
         x1="186.60001"
         y1="131"
         x2="186.60001"
         y2="490"
         id="line23" /><line
         style="fill:none;stroke:#000000;stroke-width:1.5"
         x1="224.60001"
         y1="131"
         x2="224.60001"
         y2="490"
         id="line25" /></g><g
       id="g27"><line
         style="fill:none;stroke:#000000;stroke-width:1.5"
         x1="300.60001"
         y1="131"
         x2="300.60001"
         y2="490"
         id="line29" /><line
         style="fill:none;stroke:#000000;stroke-width:1.5"
         x1="338.60001"
         y1="131"
         x2="338.60001"
         y2="490"
         id="line31" /></g></g><g
     id="g33"
     transform="translate(-23.995067,-24.366172)"><g
       id="g35"><circle
         style="fill:none;stroke:#000000;stroke-width:1.5"
         cx="262.79999"
         cy="70.599998"
         r="22.280001"
         id="circle37" /><path
         style="fill:none;stroke:#000000;stroke-width:1.5"
         d="m 242.25,79.25 c 1.29,2.85 3.02,4.82 5.13,4.82 7.7,0 10.26,-26.03 5.13,-26.03 -5.13,0 -2.56,26.03 5.13,26.03 7.7,0 10.27,-26.03 5.13,-26.03 -5.14,0 -2.57,26.03 5.13,26.03 7.7,0 10.26,-26.03 5.13,-26.03 -5.13,0 -2.57,26.03 5.13,26.03 1.93,0 3.53,-1.63 4.77,-4.07"
         id="path39"
         inkscape:connector-curvature="0" /></g><polyline
       style="fill:none;stroke:#000000;stroke-width:1.5"
       points="282.95,80 324.15,80 324.15,131  "
       id="polyline41" /><polyline
       style="fill:none;stroke:#000000;stroke-width:1.5"
       points="242.25,79.25 201.05,79.25 201.05,130.25  "
       id="polyline43" /></g><polygon
     style="fill:#ff4000;stroke:#000000"
     points="211.94,153.84 204.67,136.28 197.41,153.84 201.53,153.84 201.53,176.67 207.82,176.67 207.82,153.84 "
     id="polygon45"
     transform="translate(-23.995067,-24.366172)" /><polygon
     style="fill:#ff4000;stroke:#000000"
     points="211.94,231.84 204.67,214.28 197.41,231.84 201.53,231.84 201.53,254.67 207.82,254.67 207.82,231.84 "
     id="polygon47"
     transform="translate(-23.995067,-24.366172)" /><polygon
     style="fill:#ff4000;stroke:#000000"
     points="311.74,196.45 319.01,214 326.27,196.45 322.16,196.45 322.16,173.62 315.86,173.62 315.86,196.45 "
     id="polygon49"
     transform="translate(-23.995067,-24.366172)" /><polygon
     style="fill:#ff4000;stroke:#000000"
     points="305.74,116.45 313.01,134 320.27,116.45 316.16,116.45 316.16,93.62 309.86,93.62 309.86,116.45 "
     id="polygon51"
     transform="translate(-23.995067,-24.366172)" /><polygon
     style="fill:#ff4000;stroke:#000000"
     points="219,76.29 236.56,69.03 219,61.77 219,65.88 196.17,65.88 196.17,72.18 219,72.18 "
     id="polygon53"
     transform="translate(-23.995067,-24.366172)" /><polygon
     style="fill:#ffbf00;stroke:#000000;stroke-width:1.24759996"
     points="112.3,167.75 134.2,158.68 112.3,149.62 112.3,154.75 83.81,154.75 83.81,162.61 112.3,162.61 "
     id="polygon55"
     transform="translate(-23.995067,-24.366172)" /><polygon
     style="fill:#61e1ff;stroke:#000000;stroke-width:1.24759996"
     points="413.05,149.62 391.14,158.68 413.05,167.75 413.05,162.61 441.53,162.61 441.53,154.75 413.05,154.75 "
     id="polygon57"
     transform="translate(-23.995067,-24.366172)" /><polygon
     style="fill:#61e1ff;stroke:#000000;stroke-width:1.24759996"
     points="449.53,462.68 427.62,453.62 427.62,458.75 399.14,458.75 399.14,466.61 427.62,466.61 427.62,471.74 "
     id="polygon59"
     transform="translate(-23.995067,-33.759307)" /><polygon
     style="fill:#ffbf00;stroke:#000000;stroke-width:1.24759996"
     points="99.71,447.42 99.71,442.29 77.81,451.35 99.71,460.41 99.71,455.28 128.19,455.28 128.19,447.42 "
     id="polygon61"
     transform="translate(-23.995067,-12.366172)" /><polygon
     style="fill:#00a0c6;stroke:#000000;stroke-width:1.24759996"
     points="128.19,472.09 99.71,472.09 99.71,466.95 77.81,476.01 99.71,485.08 99.71,479.94 128.19,479.94 "
     id="polygon63"
     transform="matrix(-1,0,0,1,503.3789,-25.923062)" /><polygon
     style="fill:#ffbf00;stroke:#000000;stroke-width:1.11699998"
     points="191.98,280.41 209.53,271.35 191.98,262.29 191.98,267.42 169.15,267.42 169.15,275.28 191.98,275.28 "
     id="polygon65"
     transform="translate(-23.995067,-24.366172)" /><polygon
     style="fill:#ffbf00;stroke:#000000;stroke-width:1.11699998"
     points="191.98,323.75 209.53,314.68 191.98,305.62 191.98,310.75 169.15,310.75 169.15,318.61 191.98,318.61 "
     id="polygon67"
     transform="translate(-23.995067,-24.366172)" /><polygon
     style="fill:#61e1ff;stroke:#000000;stroke-width:1.11699998"
     points="330.03,288.95 312.48,298.01 330.03,307.08 330.03,301.94 352.86,301.94 352.86,294.09 330.03,294.09 "
     id="polygon69"
     transform="translate(-23.995067,-24.366172)" /><polygon
     style="fill:#00a0c6;stroke:#000000;stroke-width:1.11699998"
     points="186.7,359.08 186.7,353.94 209.53,353.94 209.53,346.09 186.7,346.09 186.7,340.95 169.15,350.01 "
     id="polygon71"
     transform="matrix(-1,0,0,1,507.73229,-17.534801)" /><polygon
     style="fill:#00a0c6;stroke:#000000;stroke-width:1.11699998"
     points="186.7,385.08 186.7,379.94 209.53,379.94 209.53,372.09 186.7,372.09 186.7,366.95 169.15,376.01 "
     id="polygon73"
     transform="matrix(-1,0,0,1,507.73229,-17.534801)" /><text
     id="text75"
     x="179.76953"
     y="92.304718"><tspan
       x="179.76953"
       y="92.304718"
       style="font-style:normal;font-variant:normal;font-weight:normal;font-stretch:normal;font-size:25px;font-family:sans-serif;-inkscape-font-specification:sans-serif"
       id="tspan77">e<tspan
   style="font-size:16.25px"
   id="tspan4372"
   dy="-9.0572033">−</tspan></tspan></text>
<text
     id="text81"
     x="171.10263"
     y="179.63773"><tspan
       x="171.10263"
       y="179.63773"
       style="font-style:normal;font-variant:normal;font-weight:normal;font-stretch:normal;font-size:25px;font-family:sans-serif;-inkscape-font-specification:sans-serif"
       id="tspan83"
       dy="0">e<tspan
   style="font-size:16.25px"
   id="tspan4370"
   dy="-9.0572033">−</tspan></tspan></text>
<text
     id="text87"
     x="284.77054"
     y="136.97072"><tspan
       x="284.77054"
       y="136.97072"
       style="font-style:normal;font-variant:normal;font-weight:normal;font-stretch:normal;font-size:25px;font-family:sans-serif;-inkscape-font-specification:sans-serif"
       id="tspan89">e<tspan
   style="font-size:16.25px"
   id="tspan4368"
   dy="-9.0572033">−</tspan></tspan></text>
<text
     id="text93"
     x="284.77054"
     y="220.97072"><tspan
       x="284.77054"
       y="220.97072"
       style="font-style:normal;font-variant:normal;font-weight:normal;font-stretch:normal;font-size:25px;font-family:sans-serif;-inkscape-font-specification:sans-serif"
       id="tspan95">e<tspan
   style="font-size:16.25px"
   id="tspan4382"
   dy="-9.0572033">−</tspan></tspan></text>
<text
     id="text99"
     x="226.67873"
     y="240.97072"><tspan
       x="226.67873"
       y="240.97072"
       style="font-style:normal;font-variant:normal;font-weight:normal;font-stretch:normal;font-size:25px;font-family:sans-serif;-inkscape-font-specification:sans-serif"
       id="tspan101">H<tspan
   style="font-size:16.25px"
   id="tspan4380"
   dy="-8.5392122">+</tspan></tspan></text>
<text
     id="text105"
     x="226.67873"
     y="329.63672"><tspan
       x="226.67873"
       y="329.63672"
       style="font-style:normal;font-variant:normal;font-weight:normal;font-stretch:normal;font-size:25px;font-family:sans-serif;-inkscape-font-specification:sans-serif"
       id="tspan107">H<tspan
   style="font-size:16.25px"
   id="tspan4378"
   dy="-8.5392122">+</tspan></tspan></text>
<text
     style="font-size:24px;font-family:'Bitstream Vera Sans', Verdana, sans-serif"
     id="text127"
     x="98.302826"
     y="501.63672"><tspan
       style="font-style:normal;font-variant:normal;font-weight:normal;font-stretch:normal;font-size:25px;font-family:sans-serif;-inkscape-font-specification:sans-serif"
       id="tspan4364">Anode</tspan></text>
<text
     style="font-size:24px;font-family:'Bitstream Vera Sans', Verdana, sans-serif"
     id="text129"
     x="306.85843"
     y="501.63672"><tspan
       style="font-style:normal;font-variant:normal;font-weight:normal;font-stretch:normal;font-size:25px;font-family:sans-serif;-inkscape-font-specification:sans-serif"
       id="tspan4348">Cathode</tspan></text>
<text
     style="font-size:24px;font-family:'Bitstream Vera Sans', Verdana, sans-serif"
     id="text131"
     x="176.32333"
     y="524.9707"><tspan
       style="font-style:normal;font-variant:normal;font-weight:normal;font-stretch:normal;font-size:25px;font-family:sans-serif;-inkscape-font-specification:sans-serif"
       id="tspan4346">Electrolyte</tspan></text>
<text
     id="text139"
     x="316.91669"
     y="390.70114"><tspan
       x="316.91669"
       y="390.70114"
       style="font-style:normal;font-variant:normal;font-weight:normal;font-stretch:normal;font-size:25px;font-family:sans-serif;-inkscape-font-specification:sans-serif"
       id="tspan141"
       dy="0 0 -6.038136">H<tspan
   style="font-size:16.25px"
   id="tspan4388"
   dy="6.038136">2</tspan>O</tspan></text>
<text
     id="text147"
     x="122.56644"
     y="273.63672"><tspan
       x="122.56644"
       y="273.63672"
       style="font-style:normal;font-variant:normal;font-weight:normal;font-stretch:normal;font-size:25px;font-family:sans-serif;-inkscape-font-specification:sans-serif"
       id="tspan149">H<tspan
   style="font-size:16.25px"
   id="tspan4384"
   dy="6.038136">2</tspan></tspan></text>
<text
     id="text153"
     x="322.13672"
     y="308.97073"><tspan
       x="322.13672"
       y="308.97073"
       style="font-style:normal;font-variant:normal;font-weight:normal;font-stretch:normal;font-size:25px;font-family:sans-serif;-inkscape-font-specification:sans-serif"
       id="tspan155">O<tspan
   style="font-size:16.25px"
   id="tspan4386"
   dy="6.038136">2</tspan></tspan></text>
<line
     style="fill:none;stroke:#000000;stroke-width:1.5"
     x1="172.67493"
     y1="465.63382"
     x2="166.00493"
     y2="482.97382"
     id="line159" /><line
     style="fill:none;stroke:#000000;stroke-width:1.5"
     x1="302.55493"
     y1="465.63382"
     x2="309.22491"
     y2="482.97382"
     id="line161" /><line
     style="fill:none;stroke:#000000;stroke-width:1.5"
     x1="237.33492"
     y1="465.63382"
     x2="237.33492"
     y2="500.3038"
     id="line163" /><text
     xml:space="preserve"
     style="font-style:normal;font-weight:normal;font-size:25px;line-height:125%;font-family:sans-serif;text-align:center;letter-spacing:0px;word-spacing:0px;text-anchor:middle;fill:#000000;fill-opacity:1;stroke:none;stroke-width:1px;stroke-linecap:butt;stroke-linejoin:miter;stroke-opacity:1"
     x="50.561523"
     y="373.99564"
     id="text4315"
     sodipodi:linespacing="125%"><tspan
       sodipodi:role="line"
       id="tspan4317"
       x="50.561523"
       y="373.99564">Excess</tspan><tspan
       sodipodi:role="line"
       x="50.561523"
       y="405.24564"
       id="tspan4319">fuel out</tspan></text>
<text
     xml:space="preserve"
     style="font-style:normal;font-weight:normal;font-size:25px;line-height:125%;font-family:sans-serif;letter-spacing:0px;word-spacing:0px;fill:#000000;fill-opacity:1;stroke:none;stroke-width:1px;stroke-linecap:butt;stroke-linejoin:miter;stroke-opacity:1"
     x="36.633362"
     y="101.59473"
     id="text4321"
     sodipodi:linespacing="125%"><tspan
       sodipodi:role="line"
       id="tspan4323"
       x="36.633362"
       y="101.59473">Fuel in</tspan></text>
<text
     xml:space="preserve"
     style="font-style:normal;font-weight:normal;font-size:25px;line-height:125%;font-family:sans-serif;letter-spacing:0px;word-spacing:0px;fill:#000000;fill-opacity:1;stroke:none;stroke-width:1px;stroke-linecap:butt;stroke-linejoin:miter;stroke-opacity:1"
     x="375.64014"
     y="101.59473"
     id="text4325"
     sodipodi:linespacing="125%"><tspan
       sodipodi:role="line"
       id="tspan4327"
       x="375.64014"
       y="101.59473">Air in</tspan></text>
<text
     xml:space="preserve"
     style="font-style:normal;font-weight:normal;font-size:40px;line-height:125%;font-family:sans-serif;letter-spacing:0px;word-spacing:0px;fill:#000000;fill-opacity:1;stroke:none;stroke-width:1px;stroke-linecap:butt;stroke-linejoin:miter;stroke-opacity:1"
     x="237.66786"
     y="19.618286"
     id="text4329"
     sodipodi:linespacing="125%"><tspan
       sodipodi:role="line"
       id="tspan4331"
       x="237.66786"
       y="19.618286"
       style="font-size:25px;text-align:center;text-anchor:middle">Electric current</tspan></text>
<text
     xml:space="preserve"
     style="font-style:normal;font-weight:normal;font-size:40px;line-height:125%;font-family:sans-serif;text-align:center;letter-spacing:0px;word-spacing:0px;text-anchor:middle;fill:#000000;fill-opacity:1;stroke:none;stroke-width:1px;stroke-linecap:butt;stroke-linejoin:miter;stroke-opacity:1"
     x="436.95923"
     y="340.69269"
     id="text4333"
     sodipodi:linespacing="125%"><tspan
       sodipodi:role="line"
       id="tspan4335"
       x="436.95923"
       y="340.69269"
       style="font-size:25px">Unused</tspan><tspan
       sodipodi:role="line"
       x="436.95923"
       y="371.94269"
       id="tspan4337"
       style="font-size:25px">air, water,</tspan><tspan
       sodipodi:role="line"
       x="436.95923"
       y="403.19269"
       id="tspan4339"
       style="font-size:25px">and heat</tspan></text>
</svg>